<svg xmlns="http://www.w3.org/2000/svg" fill="none" viewBox="0 0 114 114" height="114" width="114">
<g clip-path="url(#clip0_7062_82828)">
<path stroke-linejoin="round" stroke-linecap="round" stroke-width="4.72601" stroke="#454545" d="M80.4871 21.7942C88.2017 26.5583 94.1625 33.6966 97.4745 42.1372C100.786 50.5778 101.271 59.865 98.8544 68.6042C96.4382 77.3435 91.252 85.063 84.0746 90.6035C76.8972 96.144 68.1161 99.2065 59.0498 99.3311"></path>
<path stroke-linejoin="round" stroke-linecap="round" stroke-width="4.72601" stroke="#454545" d="M34.5487 92.4849C32.0343 90.86 29.6994 88.9727 27.5835 86.8548C21.7558 81.0505 17.7663 73.6586 16.113 65.6014C14.4597 57.5443 15.2156 49.1786 18.2865 41.5483C21.3574 33.918 26.6073 27.361 33.3811 22.6954C40.1549 18.0299 48.1527 15.4624 56.3764 15.3133"></path>
<path stroke-linejoin="round" stroke-linecap="round" stroke-width="4.72601" stroke="#454545" d="M44.3744 29.9349L57.0831 15.211L43.1653 3.43436"></path>
<path stroke-linejoin="round" stroke-linecap="round" stroke-width="4.72601" stroke="#454545" d="M69.1881 84.5209L56.492 99.2322L70.4099 111.009"></path>
<path stroke-linejoin="round" stroke-linecap="round" stroke-width="3.81716" stroke="#A02828" d="M41.5469 49.0195L56.9994 57.962L72.3469 49.072"></path>
<path stroke-linejoin="round" stroke-linecap="round" stroke-width="3.81716" stroke="#A02828" d="M57 73.8159V57.9434"></path>
<path stroke-linejoin="round" stroke-linecap="round" stroke-width="3.81716" stroke="#A02828" d="M53.2341 40.0727L43.8891 45.2527C41.7716 46.4252 40.0391 49.3652 40.0391 51.7802V61.6677C40.0391 64.0827 41.7716 67.0227 43.8891 68.1952L53.2341 73.3927C55.2291 74.4952 58.5016 74.4952 60.4966 73.3927L69.8416 68.1952C71.9591 67.0227 73.6916 64.0827 73.6916 61.6677V51.7802C73.6916 49.3652 71.9591 46.4252 69.8416 45.2527L60.4966 40.0552C58.4841 38.9527 55.2291 38.9527 53.2341 40.0727Z"></path>
</g>
<defs>
<clipPath id="clip0_7062_82828">
<rect transform="translate(0 114) rotate(-90)" fill="white" height="114" width="114"></rect>
</clipPath>
</defs>
</svg>
