<svg width="24" height="24" viewBox="0 0 24 24" fill="none" xmlns="http://www.w3.org/2000/svg">
<path d="M11.5303 16.5303C11.8232 16.2374 11.8232 15.7626 11.5303 15.4697C11.2374 15.1768 10.7626 15.1768 10.4697 15.4697L11.5303 16.5303ZM8 19L7.46967 19.5303C7.76256 19.8232 8.23744 19.8232 8.53033 19.5303L8 19ZM5.53033 15.4697C5.23744 15.1768 4.76256 15.1768 4.46967 15.4697C4.17678 15.7626 4.17678 16.2374 4.46967 16.5303L5.53033 15.4697ZM10.4697 15.4697L7.46967 18.4697L8.53033 19.5303L11.5303 16.5303L10.4697 15.4697ZM8.53033 18.4697L5.53033 15.4697L4.46967 16.5303L7.46967 19.5303L8.53033 18.4697Z" fill="#222222"/>
<path d="M12.4697 7.46967C12.1768 7.76256 12.1768 8.23744 12.4697 8.53033C12.7626 8.82322 13.2374 8.82322 13.5303 8.53033L12.4697 7.46967ZM16 5L16.5303 4.46967C16.2374 4.17678 15.7626 4.17678 15.4697 4.46967L16 5ZM18.4697 8.53033C18.7626 8.82322 19.2374 8.82322 19.5303 8.53033C19.8232 8.23744 19.8232 7.76256 19.5303 7.46967L18.4697 8.53033ZM13.5303 8.53033L16.5303 5.53033L15.4697 4.46967L12.4697 7.46967L13.5303 8.53033ZM15.4697 5.53033L18.4697 8.53033L19.5303 7.46967L16.5303 4.46967L15.4697 5.53033Z" fill="#222222"/>
<path d="M15.25 19C15.25 19.4142 15.5858 19.75 16 19.75C16.4142 19.75 16.75 19.4142 16.75 19H15.25ZM16.75 5C16.75 4.58579 16.4142 4.25 16 4.25C15.5858 4.25 15.25 4.58579 15.25 5L16.75 5ZM16.75 19L16.75 5L15.25 5L15.25 19H16.75Z" fill="#222222"/>
<path d="M8.75 5C8.75 4.58579 8.41421 4.25 8 4.25C7.58579 4.25 7.25 4.58579 7.25 5H8.75ZM7.25 19C7.25 19.4142 7.58579 19.75 8 19.75C8.41421 19.75 8.75 19.4142 8.75 19H7.25ZM7.25 5V19H8.75V5H7.25Z" fill="#222222"/>
</svg>
